<svg preserveAspectRatio="none" overflow="visible" style="display: block;" width="34.9757" height="9.21381" viewBox="0 0 34.9757 9.21381" fill="none" xmlns="http://www.w3.org/2000/svg">
<g id="Group">
<path id="Vector" d="M3.105 0.763601H0V0.153992H6.87234V0.763601H3.76734V9.06188H3.105V0.763601Z" fill="white"/>
<path id="Vector_2" d="M9.26432 0.151978H15.6009V0.761587H9.92455V4.26104H15.0271V4.87065H9.92455V8.44604H15.6642V9.05776H9.26221V0.151978H9.26432Z" fill="white"/>
<path id="Vector_3" d="M17.7799 4.63219V4.60688C17.7799 2.08828 19.6636 0 22.2349 0C23.8254 0 24.7809 0.586406 25.6964 1.42594L25.226 1.90898C24.4497 1.15805 23.5596 0.599063 22.2223 0.599063C20.0833 0.599063 18.4676 2.34352 18.4676 4.58156V4.60688C18.4676 6.85969 20.1087 8.61469 22.2349 8.61469C23.5195 8.61469 24.3991 8.11899 25.3019 7.22883L25.747 7.66125C24.8062 8.59148 23.7874 9.21375 22.2096 9.21375C19.6636 9.21375 17.782 7.19086 17.782 4.63219H17.7799Z" fill="white"/>
<path id="Vector_4" d="M27.9492 0.151978H28.6116V4.27581H34.3132V0.151978H34.9755V9.05987H34.3132V4.88541H28.6116V9.05987H27.9492V0.151978Z" fill="white"/>
</g>
</svg>
